<svg id="visual" viewBox="0 0 900 600" width="900" height="600" xmlns="http://www.w3.org/2000/svg" xmlns:xlink="http://www.w3.org/1999/xlink" version="1.1"><rect x="0" y="0" width="900" height="600" fill="#002233"></rect><path d="M0 411L21.5 412.7C43 414.3 86 417.7 128.8 432.3C171.7 447 214.3 473 257.2 489.3C300 505.7 343 512.3 385.8 499.8C428.7 487.3 471.3 455.7 514.2 439.8C557 424 600 424 642.8 433.5C685.7 443 728.3 462 771.2 464.7C814 467.3 857 453.7 878.5 446.8L900 440L900 601L878.5 601C857 601 814 601 771.2 601C728.3 601 685.7 601 642.8 601C600 601 557 601 514.2 601C471.3 601 428.7 601 385.8 601C343 601 300 601 257.2 601C214.3 601 171.7 601 128.8 601C86 601 43 601 21.5 601L0 601Z" fill="#0066FF" stroke-linecap="round" stroke-linejoin="miter"></path></svg>